# xmcd
#
# Track frame offsets: 
#        150
#        11212
#        34587
#        47162
#        61325
#        80637
#        102712
#        114325
#        137675
#        157087
#        175537
#        198287
#        213837
#
# Disc length: 3134 seconds
#
# Revision: 2
# Processed by: cddbd v1.5.2PL0 Copyright (c) Steve Scherf et al.
# Submitted via: ExactAudioCopyFreeDBPlugin 1.0
#
DISCID=af0c3c0d
DTITLE=Joe 'Guitar' Hughes - Craftsman
DYEAR=1994
DGENRE=Blues
TTITLE0=Fooling Yourself
TTITLE1=Rock Me Baby
TTITLE2=Say Pretty Baby
TTITLE3=New Orleans Shuffle
TTITLE4=Blues Man's Guitar
TTITLE5=Let The World Know
TTITLE6=It's Too Late Baby
TTITLE7=Been Down Hearted
TTITLE8=You Better Think Again
TTITLE9=My Time Is Expensive
TTITLE10=Cold Cold Feeling
TTITLE11=Learn From Your Mistakes
TTITLE12=Now I'm Mad
EXTD=0\n\n\nsubmitted by Stamppot
EXTT0=
EXTT1=
EXTT2=
EXTT3=
EXTT4=
EXTT5=
EXTT6=
EXTT7=
EXTT8=
EXTT9=
EXTT10=
EXTT11=
EXTT12=
PLAYORDER=
